name Run_50002_GRF.mot
datacolumns 19
datarows 20
range 1.301 1.32
endheader
time	     ground_force_vx	     ground_force_vy	     ground_force_vz	     ground_force_px	     ground_force_py	     ground_force_pz	   l_ground_force_vx	   l_ground_force_vy	   l_ground_force_vz	   l_ground_force_px	   l_ground_force_py	   l_ground_force_pz	     ground_torque_x	     ground_torque_y	     ground_torque_z	   l_ground_torque_x	   l_ground_torque_y	   l_ground_torque_z	
1.301	        122.38931300	       1379.35144000	         67.98731200	          0.81164100	          0.00000000	         -0.35118900	          0.00000000	          0.00000000	          0.00000000	          0.00000000	          0.00000000	          0.00000000	          0.00000000	         -0.92415100	          0.00000000	          0.00000000	          0.00000000	          0.00000000	
1.302	        124.67989300	       1356.20678700	         68.03833800	          0.80872300	          0.00000000	         -0.35132700	          0.00000000	          0.00000000	          0.00000000	          0.00000000	          0.00000000	          0.00000000	          0.00000000	         -0.98393500	          0.00000000	          0.00000000	          0.00000000	          0.00000000	
1.303	        126.84226200	       1332.61962900	         68.09508500	          0.80581400	          0.00000000	         -0.35146000	          0.00000000	          0.00000000	          0.00000000	          0.00000000	          0.00000000	          0.00000000	          0.00000000	         -1.03935600	          0.00000000	          0.00000000	          0.00000000	          0.00000000	
1.304	        128.87316900	       1308.59558100	         68.15367100	          0.80291700	          0.00000000	         -0.35159000	          0.00000000	          0.00000000	          0.00000000	          0.00000000	          0.00000000	          0.00000000	          0.00000000	         -1.09006100	          0.00000000	          0.00000000	          0.00000000	          0.00000000	
1.305	        130.76998900	       1284.14013700	         68.20972400	          0.80003100	          0.00000000	         -0.35171500	          0.00000000	          0.00000000	          0.00000000	          0.00000000	          0.00000000	          0.00000000	          0.00000000	         -1.13571000	          0.00000000	          0.00000000	          0.00000000	          0.00000000	
1.306	        132.53099100	       1259.25939900	         68.25848400	          0.79715600	          0.00000000	         -0.35183600	          0.00000000	          0.00000000	          0.00000000	          0.00000000	          0.00000000	          0.00000000	          0.00000000	         -1.17597100	          0.00000000	          0.00000000	          0.00000000	          0.00000000	
1.307	        134.15556300	       1233.95983900	         68.29480000	          0.79429000	          0.00000000	         -0.35195300	          0.00000000	          0.00000000	          0.00000000	          0.00000000	          0.00000000	          0.00000000	          0.00000000	         -1.21052600	          0.00000000	          0.00000000	          0.00000000	          0.00000000	
1.308	        135.64445500	       1208.24914600	         68.31325500	          0.79143000	          0.00000000	         -0.35206600	          0.00000000	          0.00000000	          0.00000000	          0.00000000	          0.00000000	          0.00000000	          0.00000000	         -1.23907700	          0.00000000	          0.00000000	          0.00000000	          0.00000000	
1.309	        137.00006100	       1182.13623000	         68.30819700	          0.78857100	          0.00000000	         -0.35217600	          0.00000000	          0.00000000	          0.00000000	          0.00000000	          0.00000000	          0.00000000	          0.00000000	         -1.26134000	          0.00000000	          0.00000000	          0.00000000	          0.00000000	
1.31	        138.22656300	       1155.63232400	         68.27381100	          0.78570900	          0.00000000	         -0.35228200	          0.00000000	          0.00000000	          0.00000000	          0.00000000	          0.00000000	          0.00000000	          0.00000000	         -1.27705200	          0.00000000	          0.00000000	          0.00000000	          0.00000000	
1.311	        139.33006300	       1128.75036600	         68.20423100	          0.78283600	          0.00000000	         -0.35238700	          0.00000000	          0.00000000	          0.00000000	          0.00000000	          0.00000000	          0.00000000	          0.00000000	         -1.28597400	          0.00000000	          0.00000000	          0.00000000	          0.00000000	
1.312	        140.31860400	       1101.50647000	         68.09359700	          0.77994500	          0.00000000	         -0.35249000	          0.00000000	          0.00000000	          0.00000000	          0.00000000	          0.00000000	          0.00000000	          0.00000000	         -1.28789000	          0.00000000	          0.00000000	          0.00000000	          0.00000000	
1.313	        141.20198100	       1073.91967800	         67.93613400	          0.77702400	          0.00000000	         -0.35259300	          0.00000000	          0.00000000	          0.00000000	          0.00000000	          0.00000000	          0.00000000	          0.00000000	         -1.28260800	          0.00000000	          0.00000000	          0.00000000	          0.00000000	
1.314	        141.99151600	       1046.01220700	         67.72628800	          0.77406400	          0.00000000	         -0.35269700	          0.00000000	          0.00000000	          0.00000000	          0.00000000	          0.00000000	          0.00000000	          0.00000000	         -1.26996600	          0.00000000	          0.00000000	          0.00000000	          0.00000000	
1.315	        142.69958500	       1017.81030300	         67.45874000	          0.77105400	          0.00000000	         -0.35280200	          0.00000000	          0.00000000	          0.00000000	          0.00000000	          0.00000000	          0.00000000	          0.00000000	         -1.24983000	          0.00000000	          0.00000000	          0.00000000	          0.00000000	
1.316	        143.33905000	        989.34350600	         67.12853200	          0.76798000	          0.00000000	         -0.35290900	          0.00000000	          0.00000000	          0.00000000	          0.00000000	          0.00000000	          0.00000000	          0.00000000	         -1.22209800	          0.00000000	          0.00000000	          0.00000000	          0.00000000	
1.317	        143.92256200	        960.64550800	         66.73116300	          0.76483100	          0.00000000	         -0.35301900	          0.00000000	          0.00000000	          0.00000000	          0.00000000	          0.00000000	          0.00000000	          0.00000000	         -1.18669600	          0.00000000	          0.00000000	          0.00000000	          0.00000000	
1.318	        144.46177700	        931.75372300	         66.26261900	          0.76159500	          0.00000000	         -0.35313300	          0.00000000	          0.00000000	          0.00000000	          0.00000000	          0.00000000	          0.00000000	          0.00000000	         -1.14358800	          0.00000000	          0.00000000	          0.00000000	          0.00000000	
1.319	        144.96656800	        902.70916700	         65.71949000	          0.75826000	          0.00000000	         -0.35325100	          0.00000000	          0.00000000	          0.00000000	          0.00000000	          0.00000000	          0.00000000	          0.00000000	         -1.09276700	          0.00000000	          0.00000000	          0.00000000	          0.00000000	
1.32	        145.44421400	        873.55670200	         65.09899100	          0.75481500	          0.00000000	         -0.35337300	          0.00000000	          0.00000000	          0.00000000	          0.00000000	          0.00000000	          0.00000000	          0.00000000	         -1.03426200	          0.00000000	          0.00000000	          0.00000000	          0.00000000	
